<svg width="18" height="18" viewBox="0 0 18 18" fill="none" xmlns="http://www.w3.org/2000/svg">
<rect width="18" height="18" rx="4" fill="#346DFF"/>
<path d="M13.6485 5.0013C13.5575 4.93424 13.4541 4.88576 13.3444 4.85864C13.2347 4.83151 13.1206 4.82628 13.0089 4.84322C12.8971 4.86016 12.7898 4.89896 12.693 4.95739C12.5962 5.01582 12.5119 5.09274 12.4449 5.18376L8.15662 11.004L5.41276 8.80896C5.32484 8.73545 5.22312 8.68024 5.11357 8.64656C5.00402 8.61289 4.88885 8.60143 4.77481 8.61287C4.66078 8.6243 4.55018 8.65839 4.44949 8.71315C4.34881 8.7679 4.26008 8.84221 4.1885 8.93172C4.11692 9.02122 4.06394 9.12412 4.03267 9.23438C4.00139 9.34464 3.99245 9.46003 4.00637 9.57379C4.02029 9.68755 4.05679 9.79738 4.11373 9.89684C4.17066 9.99631 4.24689 10.0834 4.33794 10.153L7.78067 12.9072C7.93335 13.0288 8.12323 13.0942 8.31843 13.0924C8.4527 13.0928 8.58523 13.0619 8.70548 13.0022C8.82572 12.9424 8.93037 12.8554 9.01111 12.7481L13.8309 6.20694C13.8984 6.11591 13.9472 6.01243 13.9746 5.90247C14.0019 5.79251 14.0073 5.67823 13.9903 5.56619C13.9734 5.45415 13.9344 5.34657 13.8758 5.24963C13.8171 5.15269 13.7399 5.06829 13.6485 5.0013Z" fill="white"/>
</svg>
