<svg width="14" height="14" viewBox="0 0 14 14" fill="none" xmlns="http://www.w3.org/2000/svg">
<path d="M13.5625 13.9994C13.4458 13.9994 13.3356 13.9539 13.2533 13.871L7 7.61828L0.746667 13.871C0.663833 13.9539 0.554167 13.9994 0.4375 13.9994C0.320833 13.9994 0.210583 13.9539 0.128333 13.871C-0.042 13.7007 -0.042 13.423 0.128333 13.2521L6.38167 6.99878L0.128333 0.746029C0.0455 0.663779 0 0.553529 0 0.436863C0 0.320196 0.0455 0.209946 0.128333 0.127696C0.210583 0.0448626 0.320833 -0.00063737 0.4375 -0.00063737C0.554167 -0.00063737 0.664417 0.0448626 0.746667 0.127696L7 6.38045L13.2533 0.127113C13.3362 0.0442793 13.4458 -0.0012207 13.5625 -0.0012207C13.6792 -0.0012207 13.7894 0.0442793 13.8717 0.127113C13.9545 0.209946 14 0.320196 14 0.436863C14 0.553529 13.9545 0.663779 13.8717 0.746029L7.61833 6.99936L13.8717 13.2527C14.042 13.423 14.042 13.7007 13.8717 13.8716C13.7894 13.9539 13.6792 13.9994 13.5625 13.9994Z" fill="#919B9F"/>
</svg>
