<svg width="24" height="24" viewBox="0 0 24 24" fill="white" xmlns="http://www.w3.org/2000/svg">
<g clip-path="url(#clip0)">
<path d="M24 3.75002C24 5.40402 22.654 6.75002 21 6.75002C19.66 6.75002 18.48 5.83602 18.118 4.57102C15.46 5.01302 13.495 7.30302 13.495 10.029C13.495 10.107 13.496 10.185 13.5 10.263L13.5 11.249L18.099 11.249C18.437 9.94602 19.631 8.99902 21.001 8.99902C22.655 8.99902 24.001 10.345 24.001 11.999C24.001 13.653 22.655 14.999 21.001 14.999C19.631 14.999 18.437 14.052 18.099 12.749L13.501 12.749L13.501 13.704C13.498 13.797 13.496 13.875 13.496 13.952C13.496 16.688 15.461 18.986 18.119 19.428C18.482 18.163 19.661 17.249 21.001 17.249C22.655 17.249 24.001 18.595 24.001 20.249C24.001 21.903 22.655 23.249 21.001 23.249C19.606 23.249 18.401 22.275 18.084 20.941C14.647 20.47 11.995 17.463 11.995 13.971C11.995 13.872 11.997 13.772 12.001 13.673L12.001 12.749L7.42398 12.749C7.07298 14.481 5.54998 15.749 3.75098 15.749C1.68298 15.749 0.000976161 14.067 0.000976071 11.999C0.00097598 9.93102 1.68298 8.24902 3.75098 8.24902C5.54998 8.24902 7.07398 9.51702 7.42398 11.249L12.001 11.249L12.001 10.294C11.997 10.21 11.995 10.11 11.995 10.011C11.995 6.52802 14.647 3.52802 18.084 3.05702C18.4 1.72202 19.606 0.749023 21.001 0.749023C22.654 0.750022 24 2.09602 24 3.75002ZM19.5 3.75002C19.5 4.57702 20.173 5.25002 21 5.25002C21.827 5.25002 22.5 4.57702 22.5 3.75002C22.5 2.92302 21.827 2.25002 21 2.25002C20.173 2.25002 19.5 2.92302 19.5 3.75002ZM19.5 12C19.5 12.827 20.173 13.5 21 13.5C21.827 13.5 22.5 12.827 22.5 12C22.5 11.173 21.827 10.5 21 10.5C20.173 10.5 19.5 11.173 19.5 12ZM19.5 20.25C19.5 21.077 20.173 21.75 21 21.75C21.827 21.75 22.5 21.077 22.5 20.25C22.5 19.423 21.827 18.75 21 18.75C20.173 18.75 19.5 19.423 19.5 20.25ZM1.49998 12C1.49998 13.241 2.50898 14.25 3.74998 14.25C4.99098 14.25 5.99998 13.241 5.99998 12C5.99998 10.759 4.99098 9.75002 3.74998 9.75002C2.50898 9.75002 1.49998 10.759 1.49998 12Z" fill="#ffffff"/>
</g>
<defs>
<clipPath id="clip0">
<rect width="24" height="24" fill="white"/>
</clipPath>
</defs>
</svg>
