<svg width="20" height="20" viewBox="0 0 20 20" fill="#ffffff" xmlns="http://www.w3.org/2000/svg">
<path d="M10 20C9.92667 20 9.85417 19.9867 9.78333 19.9608C9.77667 19.9583 9.77083 19.9567 9.765 19.9542C9.685 19.9217 9.61583 19.8758 9.5575 19.8167L7.05833 17.3167C6.94 17.1983 6.875 17.0417 6.875 16.875C6.875 16.7083 6.94 16.5508 7.05833 16.4333C7.17583 16.315 7.33333 16.25 7.5 16.25C7.66667 16.25 7.82417 16.315 7.94167 16.4333L9.375 17.8667V10.625H2.13417L3.5675 12.0583C3.685 12.1758 3.75 12.3333 3.75 12.5C3.75 12.6667 3.685 12.8242 3.56667 12.9417C3.44833 13.06 3.29167 13.125 3.125 13.125C2.95833 13.125 2.80083 13.06 2.68333 12.9417L0.183333 10.4417C0.125 10.3833 0.0791667 10.315 0.0475 10.2375C0.045 10.2308 0.0416667 10.2233 0.0391667 10.2158C0.0133333 10.145 0 10.0733 0 10C0 9.92583 0.0133333 9.85333 0.04 9.7825C0.0416667 9.77667 0.0441667 9.77083 0.0458333 9.765C0.0791667 9.68417 0.125 9.61583 0.184167 9.55667L2.68333 7.05833C2.80167 6.94 2.95833 6.875 3.125 6.875C3.29167 6.875 3.44917 6.94 3.56667 7.05833C3.685 7.17583 3.75 7.33333 3.75 7.5C3.75 7.66667 3.685 7.82417 3.56667 7.94167L2.13333 9.375H9.37417V2.13417L7.94167 3.56667C7.82417 3.685 7.66667 3.75 7.5 3.75C7.33333 3.75 7.17583 3.685 7.05833 3.56667C6.94 3.44917 6.875 3.29167 6.875 3.125C6.875 2.95833 6.94 2.80083 7.05833 2.68333L9.5575 0.184167C9.61583 0.125833 9.68417 0.08 9.76167 0.0483333C9.76833 0.0458333 9.775 0.0433333 9.7825 0.0408333C9.85417 0.0133333 9.92667 0 10 0C10.0742 0 10.1475 0.0133333 10.2175 0.04C10.2233 0.0416667 10.2292 0.0441667 10.235 0.0458333C10.3158 0.0791667 10.3842 0.125 10.4433 0.184167L12.9417 2.68333C13.06 2.80083 13.125 2.95833 13.125 3.125C13.125 3.29167 13.06 3.44917 12.9417 3.56667C12.8233 3.68417 12.6667 3.75 12.5 3.75C12.3333 3.75 12.1758 3.685 12.0583 3.56667L10.625 2.13333V9.37417H17.8658L16.4325 7.94083C16.315 7.82417 16.25 7.66667 16.25 7.5C16.25 7.33333 16.315 7.17583 16.4333 7.05833C16.5517 6.94083 16.7083 6.875 16.875 6.875C17.0417 6.875 17.1992 6.94 17.3167 7.05833L19.8167 9.55833C19.875 9.61667 19.9208 9.685 19.9525 9.7625C19.955 9.76917 19.9583 9.77667 19.9608 9.78417C19.9867 9.85167 20 9.92583 20 10C20 10.0725 19.9867 10.145 19.9608 10.215C19.9592 10.22 19.9575 10.2242 19.9558 10.2283C19.9208 10.315 19.8742 10.3842 19.8158 10.4425L17.3167 12.9417C17.1983 13.06 17.0417 13.125 16.875 13.125C16.7083 13.125 16.5508 13.06 16.4333 12.9417C16.3158 12.8233 16.25 12.6667 16.25 12.5C16.25 12.3333 16.315 12.1758 16.4333 12.0583L17.8667 10.625H10.625V17.8658L12.0583 16.4325C12.1767 16.3142 12.3333 16.2492 12.5 16.2492C12.6667 16.2492 12.8242 16.3142 12.9417 16.4325C13.0592 16.5508 13.125 16.7075 13.125 16.8742C13.125 17.0408 13.06 17.1983 12.9417 17.3158L10.4417 19.8158C10.3833 19.8742 10.3142 19.92 10.2367 19.9525C10.23 19.955 10.2217 19.9583 10.2142 19.9608C10.1433 19.9875 10.0717 20 10 20Z" fill="#ffffff"/>
</svg>
