<svg width="14" height="14" viewBox="0 0 14 14" fill="none" xmlns="http://www.w3.org/2000/svg">
<path d="M7 8.74991C6.7585 8.74991 6.5625 8.55391 6.5625 8.31241V7.72557C6.56192 7.17024 6.91367 6.67265 7.4375 6.48774C7.96075 6.30282 8.3125 5.80524 8.3125 5.25049C8.3125 4.89991 8.176 4.57032 7.92808 4.3224C7.68075 4.07449 7.35117 3.93799 7 3.93799C6.64942 3.93799 6.31983 4.07449 6.07192 4.3224C5.824 4.56974 5.6875 4.89932 5.6875 5.2499C5.6875 5.49082 5.4915 5.6874 5.25 5.6874C5.0085 5.6874 4.8125 5.49082 4.8125 5.2499C4.8125 4.6654 5.04058 4.11649 5.45358 3.70349C5.86658 3.29049 6.41608 3.06299 7 3.06299C8.20633 3.06299 9.1875 4.04474 9.1875 5.25049C9.1875 6.17566 8.60125 7.00399 7.72917 7.31257C7.55475 7.3744 7.4375 7.54007 7.4375 7.72499V8.31241C7.4375 8.55391 7.2415 8.74991 7 8.74991Z" fill="#151818"/>
<path d="M7 10.9375C7.36244 10.9375 7.65625 10.6437 7.65625 10.2812C7.65625 9.91881 7.36244 9.625 7 9.625C6.63756 9.625 6.34375 9.91881 6.34375 10.2812C6.34375 10.6437 6.63756 10.9375 7 10.9375Z" fill="#151818"/>
<path d="M7 14C3.14008 14 0 10.8599 0 7C0 3.14008 3.14008 0 7 0C10.8599 0 14 3.14008 14 7C14 10.8599 10.8599 14 7 14ZM7 0.875C3.6225 0.875 0.875 3.6225 0.875 7C0.875 10.3775 3.6225 13.125 7 13.125C10.3775 13.125 13.125 10.3775 13.125 7C13.125 3.6225 10.3775 0.875 7 0.875Z" fill="#151818"/>
</svg>
